<svg xmlns="http://www.w3.org/2000/svg" version="1.1" xmlns:xlink="http://www.w3.org/1999/xlink" xmlns:svgjs="http://svgjs.dev/svgjs" width="1000" height="1000"><svg xmlns="http://www.w3.org/2000/svg" version="1.1" viewBox="0 0 1000 1000">
  <!-- Generator: Adobe Illustrator 28.7.1, SVG Export Plug-In . SVG Version: 1.2.0 Build 142)  -->
  <g>
    <g id="SvgjsG1070">
      <g>
        <path d="M998.1,499.6c-45.2-82.9-97.1-142.9-158.6-203.4-71.8-70.7-119.7-71.2-178.5-42.8-15.9,7.7-36.7,22.6-48,22.6h-.1c-11.3,0-32.1-14.9-48-22.6-58.9-28.3-106.7-27.8-178.5,42.8-61.5,60.5-110.9,121.8-158.6,203.4-8.2,15.8,3.5,53.1,8.2,65.6,34,91.8,86.5,207.8,275.6,208,24.6.1,70.9-8.6,98.6-8.6,27.6,0,68.4,8.7,98.5,8.8,189.1.2,241.4-109,276.1-207.4,4.4-12.5,20.9-51.8,13.5-66.4Z" fill="#eb001e"></path>
        <path d="M610.1,563.5c-45.7,0-71.3-17.6-90-30.4-10.9-7.5-19.5-13.4-28.4-13.4s-18.4,2.9-30.3,10.4c-60.4,38.1-181.8,33.4-206.8,1.5,112.7,32,177.9-33.3,237.1-33.3s27.6,8.3,40.5,17.1c18.2,12.5,38.9,26.7,77.9,26.7s58.5-13.5,76.9-25.4c14.6-9.5,28.4-18.4,47-18.4,58,0,123.6,65.3,237.1,33.3-12.3,21.2-109.9,51.3-202.3,0-14.1-7.8-26.4-11.9-34.7-11.9-12.2,0-22.4,6.6-35.3,15-19.9,12.9-44.6,28.9-88.6,28.9Z"></path>
        <path d="M450.7,526.8c-45.8,48-121,128.8-173.7,185.7-31.9,34.4-26.3,89,11.9,116.3h0c36.8,26.3,88.2,15.8,111.8-22.9l131.6-216.5c14.8-24.4,7.1-56.2-17.2-71h0c-20.8-12.7-47.6-9.2-64.4,8.4Z" fill="#fff"></path>
        <path d="M520.6,509.3c-24.9-15.2-57.6-10.9-77.7,10.1-45.6,47.7-119.7,127.4-173.8,185.8-17.3,18.7-25.7,43.9-23.1,69.2,2.6,25.3,15.9,48.3,36.6,63.1,15.1,10.8,33.2,16.5,51.6,16.5s11.8-.6,17.7-1.8c24-4.9,45.1-19.8,57.9-40.7l131.6-216.5c17.9-29.4,8.5-67.8-20.8-85.7ZM523.1,583.9l-112.3,184.7c0-1,.1-1.9.1-2.9,0-42.6-34.5-77.2-77.2-77.2s-15.9,1.3-23.2,3.6c50.1-54,109.3-117.4,147.9-157.9,7.9-8.3,18.8-12.6,29.7-12.6s14.7,1.9,21.3,6c19.3,11.8,25.4,37,13.7,56.3Z"></path>
        <path d="M169.8,799.1c-70.6,0-131-33.9-157.5-91.7-25.8-56.3-11-122.6,44.1-197.1,16-21.7,37.5-46.3,61.9-70.6,61.9-61.6,102.5-105.9,120-147.4,40.4-95.7-14.4-146.2-14.4-146.2,32.3,14.9,47.2,59.7,48.7,94.4,3.2,78.1-68,154.1-130.9,221.1-22.9,24.5-44.6,47.6-59.5,67.7-47.6,64.4-61.3,119.8-40.7,164.7,25.7,56.1,93.1,83.9,167.7,69l6.3,31.5c-15.5,3.1-30.8,4.6-45.7,4.6Z"></path>
      </g>
    </g>
  </g>
</svg><style>@media (prefers-color-scheme: light) { :root { filter: none; } }
@media (prefers-color-scheme: dark) { :root { filter: none; } }
</style></svg>